<svg fill="none" height="29" viewBox="0 0 29 29" width="29" xmlns="http://www.w3.org/2000/svg"><path d="m10.5857 0c2.8075 0 5.5 1.11528 7.4852 3.10048 1.9853 1.98521 3.1005 4.67773 3.1005 7.48522 0 2.622-.9608 5.0323-2.5405 6.8889l.4397.4397h1.2865l8.1429 8.1428-2.4429 2.4429-8.1428-8.1429v-1.2865l-.4397-.4397c-1.8566 1.5797-4.2669 2.5405-6.8889 2.5405-2.80749 0-5.50001-1.1152-7.48522-3.1005-1.9852-1.9852-3.10048-4.6777-3.10048-7.4852 0-2.80749 1.11528-5.50001 3.10048-7.48522 1.98521-1.9852 4.67773-3.10048 7.48522-3.10048zm0 3.25714c-4.07141 0-7.32856 3.25715-7.32856 7.32856 0 4.0714 3.25715 7.3286 7.32856 7.3286 4.0714 0 7.3286-3.2572 7.3286-7.3286 0-4.07141-3.2572-7.32856-7.3286-7.32856z" fill="#979797"/></svg>