<svg fill="none" height="73" viewBox="0 0 319 73" width="319" xmlns="http://www.w3.org/2000/svg"><g fill="#760808"><path d="m114.153 18.4881h6.87v.9094h-1.869c-.471 0-.791.2357-.96.7072l-9.346 30.2101h-1.717l-8.2347-25.1582-8.184 25.1582h-1.7176l-9.3459-30.2101c-.1684-.4715-.4884-.7072-.9599-.7072h-1.8692v-.9094h9.5986v.9094h-2.526l7.2242 24.4004 6.921-21.3188-.7578-2.3744c-.1684-.4715-.4883-.7072-.9598-.7072h-1.8692v-.9094h9.5983v.9094h-2.526l7.629 24.2489 7.527-24.2489h-2.526zm30.855 30.2101v-13.5895h-14.752v13.5895c0 .4715.236.7073.708.7073h2.374v.9093h-10.306v-.9093h2.375c.471 0 .707-.2358.707-.7073v-28.6945c0-.4041-.236-.6062-.707-.6062h-2.375v-.9094h10.306v.9094h-2.374c-.472 0-.708.2357-.708.7072v13.5895h14.752v-13.5895c0-.4715-.236-.7072-.707-.7072h-2.375v-.9094h10.306v.9094h-2.374c-.472 0-.708.2021-.708.6062v28.6945c0 .4715.236.7073.708.7073h2.374v.9093h-10.306v-.9093h2.375c.471 0 .707-.2358.707-.7073zm13.864 0v-28.6945c0-.4041-.236-.6062-.707-.6062h-2.375v-.9094h10.306v.9094h-2.374c-.472 0-.707.2021-.707.6062v28.6945c0 .4715.235.7073.707.7073h2.374v.9093h-10.306v-.9093h2.375c.471 0 .707-.2358.707-.7073zm34.576 1.6166-18.995-28.1893v26.5727c0 .4715.235.7073.707.7073h2.374v.9093h-7.881v-.9093h2.375c.471 0 .707-.2358.707-.7073v-28.6945c0-.4041-.236-.6062-.707-.6062h-2.375v-.9094h7.427l16.267 24.0469v-22.4303c0-.4715-.236-.7072-.708-.7072h-2.374v-.9094h7.881v.9094h-2.374c-.472 0-.708.2021-.708.6062v30.3111zm7.977 0v-.9093h2.374c.472 0 .707-.2358.707-.7073v-28.6945c0-.4041-.235-.6062-.707-.6062h-2.374v-.9094h16.014c2.661 0 4.53-.1515 5.608-.4546-.303 1.3808-.455 3.3005-.455 5.7591v2.3744h-1.162l-.758-5.1529c-.067-.741-.538-1.1114-1.414-1.1114h-10.609v13.7915h10.154c.404 0 .64-.2357.707-.7072l.253-3.1322h.909v9.0934h-.909l-.253-3.1322c-.067-.4715-.303-.7073-.707-.7073h-10.154v13.7916h11.316c.876 0 1.347-.3705 1.415-1.1114l.757-5.9107h1.162v2.3744c0 2.9637.152 5.136.455 6.5169-1.078-.3031-2.947-.4547-5.608-.4547zm26.098-30.9173v-.9094h12.326c2.863 0 5.271.8757 7.224 2.627 1.988 1.7176 2.981 4.0415 2.981 6.9716 0 2.93-.993 5.2707-2.981 7.022-1.953 1.7177-4.361 2.5765-7.224 2.5765h-5.102v11.013c0 .4715.236.7073.707.7073h3.385v.9093h-11.316v-.9093h2.374c.472 0 .707-.2358.707-.7073v-28.6945c0-.4041-.235-.6062-.707-.6062zm12.074.5052h-4.85v16.368h4.85c1.987 0 3.553-.8083 4.698-2.4249 1.145-1.6503 1.718-3.57 1.718-5.7591 0-2.1892-.573-4.092-1.718-5.7086-1.145-1.6503-2.711-2.4754-4.698-2.4754zm36.519 30.4121h-10.356v-.9093h3.284l-3.536-9.7501h-11.114l-3.537 9.7501h3.284v.9093h-7.628v-.9093h1.869c.471 0 .791-.2358.96-.7073l11.114-30.2101h1.717l11.114 30.2101c.169.4715.489.7073.96.7073h1.869zm-16.115-25.8655-5.052 13.7916h10.053zm17.399-5.0518v-.9094h12.832c4.277 0 7.763 1.4146 10.457 4.2436s4.041 6.719 4.041 11.6698-1.347 8.8407-4.041 11.6698c-2.694 2.829-6.18 4.2435-10.457 4.2435h-12.832v-.9093h2.374c.472 0 .708-.2021.708-.6062v-28.7956c0-.4041-.236-.6062-.708-.6062zm12.832.5052h-5.608v28.9976h5.608c2.896 0 5.321-1.2966 7.274-3.8899 1.954-2.5933 2.93-6.1296 2.93-10.6089s-.976-8.0156-2.93-10.6089c-1.953-2.5933-4.378-3.8899-7.274-3.8899z"/><path d="m27.0676 64.0646c-.9403-1.5615-1.7733-3.1852-2.4933-4.8597-.1642-.4139-.5403-.7057-.982-.7619-.4416-.0562-.8788.1322-1.1414.4917-.2625.3596-.3087.8335-.1207 1.237.8558 1.9882 1.8614 3.9086 3.008 5.7446v.0061.0085c1.1624 1.9083 2.476 3.7202 3.9283 5.4183.6973.8136 1.7176 1.2786 2.7892 1.2711h27.5776c1.0667.0058 2.0822-.4566 2.7782-1.265 1.4563-1.7024 2.7732-3.5193 3.9381-5.4329.0073-.0135.0098-.0269.0171-.0391 1.7062-2.7564 3.1148-5.6863 4.2021-8.7403v-.0062c.7267-2.0417 1.3039-4.1336 1.727-6.2591 1.3848-6.6157 1.3848-13.4464 0-20.062-.4231-2.1255-1.0003-4.2174-1.727-6.2592v-.0061c-1.0938-3.0727-2.5123-6.0199-4.2314-8.7917-1.161-1.9096-2.4722-3.7239-3.921-5.4255-.6995-.80987-1.7179-1.27374-2.788-1.26994h-23.0028c-.675 0-1.2222.54722-1.2222 1.22224 0 .675.5472 1.2223 1.2222 1.2223h23.0028c.3516-.0061.6887.1395.9253.3996.9044 1.0683 1.7429 2.1622 2.5031 3.2671h-30.1957c-.4866-.0007-.9273.2873-1.122.7334-.352.8152-.6906 1.6549-1.0023 2.5068-.2218.6305.1039 1.3223.7313 1.5529.6273.2307 1.3236-.0854 1.5629-.7095.2041-.5549.418-1.1001.6405-1.644h6.0526c-.1223.7444-.2518 1.5071-.3667 2.3003-.0979.6679.3642 1.2888 1.0322 1.3866.6679.0979 1.2887-.3642 1.3866-1.0321.1345-.918.2775-1.8065.4278-2.6548h7.2785c.3312 1.8713.6282 3.9198.8861 6.1113h-8.7317c-.675 0-1.2223.5472-1.2223 1.2222 0 .6751.5473 1.2223 1.2223 1.2223h26.9066c.4217 1.2687.7676 2.4824 1.0487 3.6667h-26.8064c-.675 0-1.2223.5473-1.2223 1.2223s.5473 1.2222 1.2223 1.2222h8.3113c.3217 5.6992.3261 11.4119.0135 17.1116h-10.5334c-.209-3.8245-.275-7.6464-.1992-11.3792.0136-.6746-.522-1.2327-1.1966-1.2467-.6704-.0025-1.2223.5267-1.2479 1.1966-.0758 3.7499.011 7.5889.2175 11.4293h-7.6488c-.6751 0-1.2223.5472-1.2223 1.2222s.5472 1.2223 1.2223 1.2223h39.09c-.2811 1.1843-.627 2.398-1.0487 3.6667h-40.7914c-.675 0-1.2222.5472-1.2222 1.2223 0 .675.5472 1.2222 1.2222 1.2222h1.32c.5365 2.0741 1.1949 4.1147 1.9715 6.1113zm33.4897 5.703c-.2325.2638-.5687.413-.9203.4082h-27.5813c-.3518.0051-.6881-.1441-.9204-.4082-.8904-1.0423-1.7263-2.1299-2.5044-3.2585h34.4272c-.7781 1.1286-1.614 2.2162-2.5044 3.2585zm-7.7356-46.0373c-.2518-2.1817-.5402-4.2278-.8654-6.1113h6.0587c.8237 1.9909 1.5202 4.0321 2.0852 6.1113zm9.7976 0c-.5397-2.0734-1.1988-4.1139-1.974-6.1113h3.9699c1.1714 1.9534 2.1854 3.9969 3.0324 6.1113zm-9.0777 25.6672c.3129-5.6995.3129-11.4119 0-17.1115h8.26c.7187 5.6812.7187 11.4303 0 17.1115zm10.7118 0c.693-5.6827.693-11.4287 0-17.1115h5.8497c1.0573 5.6549 1.0573 11.4567 0 17.1115zm.3667 14.6671h-3.9748c.7767-1.9966 1.435-4.0372 1.9715-6.1113h5.0308c-.847 2.1144-1.861 4.1579-3.0324 6.1113zm-6.6002 0h-6.0574c.3263-1.8921.6111-3.9394.8653-6.1113h7.2712c-.5647 2.0787-1.2595 4.1198-2.0803 6.1113zm-7.6464-6.1113c-.2554 2.1829-.5524 4.229-.8861 6.1113h-7.2846c-.3312-1.8713-.6283-3.9198-.8861-6.1113zm-18.7835 0h7.2711c.2518 2.1817.5403 4.2278.8654 6.1113h-6.0563c-.8213-1.9913-1.5161-4.0325-2.0802-6.1113z"/><path d="m13.4516 25.7958c-1.8783-2.8413-5.4656-4.0155-8.66036-2.8346-3.19476 1.181-5.155923 4.4061-4.7345185 7.786.4214045 3.3798 3.1144385 6.0247 6.5013585 6.385-.76903 2.1164-.52101 4.469.67243 6.3785 1.19345 1.9095 3.19949 3.1634 5.43879 3.3995-1.1102 3.045-.0899 6.4577 2.5095 8.3937 2.5994 1.9359 6.1613 1.9359 8.7607 0 2.5994-1.936 3.6197-5.3487 2.5095-8.3937 2.2394-.2361 4.2454-1.49 5.4388-3.3995 1.1935-1.9095 1.4415-4.2621.6725-6.3785 3.3884-.3568 6.0848-3.0003 6.5086-6.3809.4238-3.3807-1.5366-6.608-4.7321-7.7902-3.1954-1.1822-6.7842-.0078-8.6627 2.8347-1.1116-1.6726-2.8599-2.8167-4.8377-3.1656.135-1.9034.4527-3.7895.9485-5.6321.411.1047.8336.1569 1.2577.1552 1.5606-.0949 3.08-.5384 4.4465-1.298 2.1563-.8931 3.9387-2.5024 5.0467-4.5566 0-.0061.0391-.0807.0403-.0868.3567-.9139.5443-1.8851.5537-2.86615.02-.47566.0727-.94938.1577-1.41781.0525-.23462.127-.46378.2224-.68446.3329-.70063.7552-1.35511 1.2565-1.94705.3508-.44245.7028-.8788 1.1098-1.35914.5495-.48867.7585-1.25573.5329-1.955604-.2823-.691794-.9154-1.0218021-1.9617-.97780106l-.6844.02811176c-2.1617-.0193205-4.3172.2336383-6.4156.7529073l-.2897.086779c-3.0991 1.015037-5.693 3.176427-7.2504 6.041587-1.2045 2.06043-1.6054 4.49323-1.1257 6.83113.1756.6781.4958 1.3102.9387 1.853-.1614.5268-.3044 1.0474-.4278 1.5547-.7053-1.3967-1.7108-2.62-2.9444-3.5824-.223-1.3861-.8404-2.6786-1.7784-3.72303-1.0319-1.4804-2.5428-2.55962-4.2779-3.05562l-.0745-.01589c-.75487-.1243-1.52604-.11021-2.27585.04155-.33334.05791-.67024.09303-1.00836.10512-.15808.00045-.31579-.01552-.47057-.04767-.53183-.1268-1.04526-.32108-1.52781-.57813-.37279-.18211-.73335-.36667-1.14769-.58423-.54096-.39352-1.26695-.4182-1.83338-.06234-.60051.43811-.81982 1.23231-.52924 1.91649l.12223.4889c.33383 1.59822.86768 3.14805 1.58893 4.61275l.11244.2017c1.26514 2.1576 3.30639 3.7507 5.70669 4.4539.79986.2334 1.62841.354 2.46161.3581 1.0039.0173 1.998-.2003 2.9029-.6356.4656-.2345.8808-.558 1.2222-.9521 1.6328 1.8109 2.6245 4.1087 2.8222 6.539-1.9678.3552-3.7057 1.4976-4.812 3.1632zm-.3288-10.9342c-1.1416.4724-2.4165.5115-3.58487.11-1.79055-.5221-3.31417-1.7082-4.25954-3.316l-.08312-.1479c-.45898-.9026-.8129-1.8548-1.0548-2.83805.59065.28229 1.21379.49083 1.85538.6209.28208.05269.56863.07766.85557.07456.45485-.01094.90828-.05506 1.3567-.13201.47435-.10426.96325-.12494 1.4447-.06111l.27868-1.18925-.2689 1.19292c1.1837.39274 2.204 1.16634 2.9016 2.20004.1015.1222.2579.3227.4266.5586-1.0442-.288-2.1228-.4315-3.20597-.4266-.67503 0-1.22225.5472-1.22225 1.2223 0 .675.54722 1.2222 1.22225 1.2222 1.23547-.0176 2.46017.2326 3.58977.7334-.0782.0665-.1625.1254-.2518.176zm-10.67148 14.9799c0-2.7001 2.18888-4.889 4.889-4.889 2.70008 0 4.88898 2.1889 4.88898 4.889-.0044.9956-.3155 1.9657-.891 2.7782-1.2427.3746-2.36231 1.0752-3.24262 2.0289-.24933.0465-.50185.0739-.75536.0819-2.70012 0-4.889-2.1889-4.889-4.889zm11.00028 14.667c-1.856.0013-3.55273-1.0485-4.37997-2.7099-.82724-1.6615-.64234-3.6481.4773-5.1284.03314-.0331.06416-.0682.09289-.1051.68858-.8657 1.65248-1.4699 2.73178-1.7124.7099-.1589 1.4461-.1589 2.156 0 1.0791.2422 2.043.8459 2.7317 1.7112.0287.0359.0593.0701.0917.1026.6413.8509.9879 1.8875.9876 2.953-.0043.9856-.3096 1.9464-.8751 2.7537-1.258.3791-2.391 1.0891-3.2806 2.0559-.2421.0444-.4872.071-.7333.0794zm6.1112 9.778c-2.7001 0-4.889-2.1889-4.889-4.889s2.1889-4.889 4.889-4.889c2.7002 0 4.889 2.1889 4.889 4.889s-2.1888 4.889-4.889 4.889zm6.1113-9.778c-.2461-.0084-.4912-.035-.7334-.0794-.8896-.9668-2.0226-1.6768-3.2805-2.0559-.5655-.8073-.8708-1.7681-.8751-2.7537-.0005-1.0642.3457-2.0996.9863-2.9493.0332-.0331.0642-.0682.0929-.1051.6886-.8657 1.6525-1.4699 2.7318-1.7124.7099-.1589 1.4461-.1589 2.156 0 1.0791.2422 2.043.8459 2.7318 1.7112.0286.0359.0592.0701.0916.1026 1.1217 1.4801 1.308 3.468.4808 5.1307s-2.5251 2.7132-4.3822 2.7113zm6.1113-19.556c2.7001 0 4.889 2.1889 4.889 4.889s-2.1889 4.889-4.889 4.889c-.2536-.008-.5061-.0354-.7554-.0819-.8808-.9531-2.0003-1.6535-3.2426-2.0289-.5755-.8125-.8866-1.7826-.8911-2.7782 0-2.7001 2.1889-4.889 4.8891-4.889zm-9.8184-16.88298c1.2508-2.30396 3.3339-4.0435 5.824-4.86334l.231-.06966c1.6524-.41785 3.3497-.63131 5.054-.63558l-.2261.28357c-.6344.75624-1.1654 1.59349-1.5791 2.48972 0 .00734-.0465.11489-.0501.12223-.1372.33197-.2444.67558-.3203 1.02669-.11.5819-.1786 1.17088-.2053 1.76248-.0006.68615-.1176 1.36722-.3459 2.01427l-.0306.0685c-.8924 1.5328-2.2679 2.7264-3.9112 3.3941-1.1553.6951-2.4879 1.0391-3.8354.9901 1.0035-3.0195 3.1777-5.50933 6.0343-6.91064.6103-.27204.8891-.98383.6258-1.59801-.2633-.61417-.9711-.90303-1.589-.64849-2.9774 1.36521-5.3576 3.76541-6.6979 6.75414-.0535-1.4611.3003-2.90838 1.0218-4.18008zm-2.4042 16.88298c2.7002 0 4.889 2.1889 4.889 4.889-.0044.9956-.3155 1.9657-.891 2.7782-1.2424.3746-2.3619 1.0747-3.2426 2.0277-.5008.0806-1.0112.0806-1.5119 0-.8806-.9526-1.9997-1.6526-3.2414-2.0277-.5755-.8125-.8866-1.7826-.8911-2.7782 0-1.2967.5151-2.5402 1.432-3.4571.9169-.9168 2.1604-1.4319 3.457-1.4319z"/><path d="m18.3407 51.842c.675 0 1.2222-.5473 1.2222-1.2223s-.5472-1.2222-1.2222-1.2222c-.6751 0-1.2223.5472-1.2223 1.2222s.5472 1.2223 1.2223 1.2223z"/><path d="m12.2293 42.064c.6751 0 1.2223-.5472 1.2223-1.2222 0-.6751-.5472-1.2223-1.2223-1.2223-.675 0-1.2222.5472-1.2222 1.2223 0 .675.5472 1.2222 1.2222 1.2222z"/><path d="m24.4517 42.064c.6751 0 1.2223-.5472 1.2223-1.2222 0-.6751-.5472-1.2223-1.2223-1.2223-.675 0-1.2222.5472-1.2222 1.2223 0 .675.5472 1.2222 1.2222 1.2222z"/><path d="m18.3407 32.2859c.675 0 1.2222-.5472 1.2222-1.2222s-.5472-1.2223-1.2222-1.2223c-.6751 0-1.2223.5473-1.2223 1.2223s.5472 1.2222 1.2223 1.2222z"/><path d="m30.5631 32.2859c.675 0 1.2222-.5472 1.2222-1.2222s-.5472-1.2223-1.2222-1.2223c-.6751 0-1.2223.5473-1.2223 1.2223s.5472 1.2222 1.2223 1.2222z"/><path d="m6.118 32.2859c.67503 0 1.22225-.5472 1.22225-1.2222s-.54722-1.2223-1.22225-1.2223-1.22225.5473-1.22225 1.2223.54722 1.2222 1.22225 1.2222z"/></g><path d="m79.7246 60.4387h228.1224" stroke="#760808" stroke-width=".789352"/></svg>